<?xml version="1.0" encoding="utf-8"?>
<!-- Generator: Adobe Illustrator 21.0.0, SVG Export Plug-In . SVG Version: 6.00 Build 0)  -->
<svg version="1.1" id="Layer_1" xmlns="http://www.w3.org/2000/svg" xmlns:xlink="http://www.w3.org/1999/xlink" x="0px" y="0px"
	 viewBox="0 0 242 362" style="enable-background:new 0 0 242 362;" xml:space="preserve">
<style type="text/css">
	.st0{fill:#FFFFFF;}
	.st1{fill:#FFAA00;}
	.st2{fill:#00AA00;}
	.st3{fill:#FF5555;}
	.st4{fill:#5555FF;}
	.st5{fill:none;stroke:#FFFFFF;stroke-width:4;}
</style>
<g id="g9888-0-5-0" transform="translate(0,1080)">
	<path id="rect2987-8-5-81-2-4-9-82" class="st0" d="M41-1079h160c22.1,0,40,17.9,40,40v280c0,22.1-17.9,40-40,40H41
		c-22.1,0-40-17.9-40-40v-280C1-1061.1,18.9-1079,41-1079z"/>
	<path id="rect3757-26-33-5-9-0-0-7" d="M41-1059h160c11,0,20,9,20,20v280c0,11-9,20-20,20H41c-11,0-20-9-20-20v-280
		C21-1050,30-1059,41-1059z"/>
	<path id="path3773-0-4-8-4-60-3-86-5-7-5-4" class="st0" d="M181-999c-88.4,0-160,71.6-160,160c0,22.1,17.9,40,40,40
		c88.4,0,160-71.6,160-160C221-981.1,203.1-999,181-999z"/>
	<path id="path3773-0-4-8-8-7-9-0-9-1-07" class="st1" d="M32.8-899C25.2-880.5,21-860.2,21-839c0,22.1,17.9,40,40,40l60-100H32.8z"
		/>
	<path id="path3773-0-4-8-8-5-6-5-0-08-2-6" class="st2" d="M121-899L61-799c67.1,0,124.5-41.4,148.2-100H121z"/>
	<path id="path3773-0-4-8-8-1-4-3-1-0-0" class="st3" d="M181-999c-67.1,0-124.5,41.4-148.2,100H121L181-999z"/>
	<path id="path3773-0-4-8-8-5-8-3-9-4-9-1" class="st4" d="M181-999l-60,100h88.2c7.5-18.5,11.8-38.8,11.8-60
		C221-981.1,203.1-999,181-999z"/>
	<path id="path3773-0-4-8-8-7-9-5-7-0-8-29" class="st1" d="M33.9-1024c-1.9,4.6-2.9,9.7-2.9,15c0,5.5,4.5,10,10,10l15-25H33.9z"/>
	<path id="path3773-0-4-8-8-5-6-5-08-9-79-9-3" class="st2" d="M56-1024l-15,25c16.8,0,31.1-10.3,37.1-25H56z"/>
	<path id="path3773-0-4-8-8-1-4-39-9-5-1-85" class="st3" d="M71-1049c-16.8,0-31.1,10.3-37.1,25H56L71-1049z"/>
	<path id="path3773-0-4-8-8-5-8-3-3-7-38-7-1" class="st4" d="M71-1049l-15,25h22.1c1.9-4.6,2.9-9.7,2.9-15
		C81-1044.5,76.5-1049,71-1049z"/>
	<path id="path3773-0-4-8-8-7-9-5-3-2-3-5" class="st1" d="M163.9-774c-1.9,4.6-2.9,9.7-2.9,15c0,5.5,4.5,10,10,10l15-25H163.9z"/>
	<path id="path3773-0-4-8-8-5-6-5-08-5-3-3-66" class="st2" d="M186-774l-15,25c16.8,0,31.1-10.3,37.1-25H186z"/>
	<path id="path3773-0-4-8-8-1-4-39-7-2-0-8" class="st3" d="M201-799c-16.8,0-31.1,10.3-37.1,25H186L201-799z"/>
	<path id="path3773-0-4-8-8-5-8-3-3-6-1-7-8" class="st4" d="M201-799l-15,25h22.1c1.9-4.6,2.9-9.7,2.9-15
		C211-794.5,206.5-799,201-799z"/>
	<path id="path3773-0-4-8-8-7-9-0-03-8-0-6-9" class="st5" d="M181-999c-67.1,0-124.5,41.4-148.2,100C25.2-880.5,21-860.2,21-839
		c0,22.1,17.9,40,40,40c67.1,0,124.5-41.4,148.2-100c7.5-18.5,11.8-38.8,11.8-60C221-981.1,203.1-999,181-999z"/>
	<path id="path3773-0-4-8-8-7-9-0-03-8-9-4-6-8" class="st5" d="M71-1049c-16.8,0-31.1,10.3-37.1,25c-1.9,4.6-2.9,9.7-2.9,15
		c0,5.5,4.5,10,10,10c16.8,0,31.1-10.3,37.1-25c1.9-4.6,2.9-9.7,2.9-15C81-1044.5,76.5-1049,71-1049z"/>
	<path id="path3773-0-4-8-8-7-9-0-03-8-9-5-07-0-7" class="st5" d="M201-799c-16.8,0-31.1,10.3-37.1,25c-1.9,4.6-2.9,9.7-2.9,15
		c0,5.5,4.5,10,10,10c16.8,0,31.1-10.3,37.1-25c1.9-4.6,2.9-9.7,2.9-15C211-794.5,206.5-799,201-799z"/>
</g>
</svg>
