<svg viewBox="0 0 240 360"><defs><style>.cls-1{fill:#fff;}</style></defs><title>card</title><g id="g6619"><rect id="rect2987-8-5-8" class="cls-1" width="240" height="360" rx="40" ry="40"/><rect id="rect3757-26-33-9" x="20" y="20" width="200" height="320" rx="20" ry="20"/><path id="path3773-0-4-8-4-60-3-0" class="cls-1" d="M180,80A160,160,0,0,0,20,240a40,40,0,0,0,40,40A160,160,0,0,0,220,120,40,40,0,0,0,180,80Z"/><path id="rect3163-52-9-8-1-1-2-7-3-6-4-6-1-8-8-5" d="M120,120a30,30,0,0,0-30,30,29.65,29.65,0,0,0,6.13,18,40,40,0,1,0,47.75,0A29.65,29.65,0,0,0,150,150,30,30,0,0,0,120,120Zm0,20a10,10,0,1,1-10,10A10,10,0,0,1,120,140Zm-2,40a19.62,19.62,0,0,1,2,0,19,19,0,1,1-2,0Z"/><path id="rect3163-52-9-8-1-1-2-7-3-6-4-6-1-8-8-2-1" class="cls-1" d="M50,30A15,15,0,0,0,35,45a14.82,14.82,0,0,0,3.06,9,20,20,0,1,0,23.88,0A14.82,14.82,0,0,0,65,45,15,15,0,0,0,50,30Zm0,10a5,5,0,1,1-5,5A5,5,0,0,1,50,40ZM49,60a9.26,9.26,0,0,1,1,0,9.51,9.51,0,1,1-1,0Z"/><path id="rect3163-52-9-8-1-1-2-7-3-6-4-6-1-8-8-2-1-1" class="cls-1" d="M190,330a15,15,0,0,1-15-15,14.82,14.82,0,0,1,3.06-9,20,20,0,1,1,23.88,0,14.82,14.82,0,0,1,3.06,9A15,15,0,0,1,190,330Zm0-10a5,5,0,1,0-5-5A5,5,0,0,0,190,320Zm-1-20a9.26,9.26,0,0,0,1,0,9.51,9.51,0,1,0-1,0Z"/></g></svg>