<?xml version="1.0" encoding="utf-8"?>
<!-- Generator: Adobe Illustrator 21.0.0, SVG Export Plug-In . SVG Version: 6.00 Build 0)  -->
<svg version="1.0" id="Layer_1" xmlns="http://www.w3.org/2000/svg" xmlns:xlink="http://www.w3.org/1999/xlink" x="0px" y="0px"
	 viewBox="0 0 240.5 360.5" style="enable-background:new 0 0 240.5 360.5;" xml:space="preserve">
<g id="g6694" transform="matrix(4,0,0,4,-1260,-2077.0865)">
	<path id="rect2987-8-5-81-2-1" style="fill:#FFFFFF;" d="M325.1,519.3h40c5.5,0,10,4.5,10,10v70c0,5.5-4.5,10-10,10h-40
		c-5.5,0-10-4.5-10-10v-70C315.1,523.8,319.5,519.3,325.1,519.3z"/>
	<path id="rect3757-26-33-5-9-9" d="M325.1,524.3h40c2.8,0,5,2.2,5,5v70c0,2.8-2.2,5-5,5h-40c-2.8,0-5-2.2-5-5v-70
		C320.1,526.6,322.3,524.3,325.1,524.3z"/>
	<path id="path3773-0-4-8-4-60-3-86-5-6" style="fill:#FFFFFF;" d="M360.1,539.3c-22.1,0-40,17.9-40,40c0,5.5,4.5,10,10,10
		c22.1,0,40-17.9,40-40C370.1,543.8,365.6,539.3,360.1,539.3z"/>
	<path id="rect3980-7-6-2-9-5-60-5-3-1-5" style="fill:#FFFFFF;" d="M335,526.8l-4.9,10v2.5h6v2.5h2.5v-2.5h1.5v-2.5h-1.5v-5h-2.5v5
		h-3.4l4.9-10H335z"/>
	<path id="rect5649-4" style="fill:#FFFFFF;" d="M323.6,531.8v2.5h-2.5v2.5h2.5v2.5h2.5v-2.5h2.5v-2.5h-2.5v-2.5H323.6z"/>
	<path id="rect3980-7-6-2-9-5-60-5-3-1-8-9" style="fill:#FFFFFF;" d="M355.2,601.8l4.9-10v-2.5h-6v-2.5h-2.5v2.5h-1.5v2.5h1.5v5
		h2.5v-5h3.4l-4.9,10H355.2z"/>
	<path id="rect5649-1-1" style="fill:#FFFFFF;" d="M366.6,596.8v-2.5h2.5v-2.5h-2.5v-2.5h-2.5v2.5h-2.5v2.5h2.5v2.5H366.6z"/>
	<g id="g6111-38-2" transform="translate(119.99999,429.99998)">
		<path id="rect6095-2-9" style="fill:#FFFFFF;stroke:#000000;stroke-width:0.5099;" d="M215.8,121.8h10c1.4,0,2.2,1,1.9,2.3
			l-5.1,18c-0.4,1.2-1.8,2.3-3.1,2.3h-10c-1.4,0-2.2-1-1.9-2.3l5.1-18C213,122.8,214.4,121.8,215.8,121.8z"/>
		<path id="rect6097-5-7" style="fill:#FF5555;" d="M217.6,124.3h5c1.4,0,2.2,1,1.9,2.3l-3.7,13c-0.4,1.2-1.8,2.3-3.1,2.3h-5
			c-1.4,0-2.2-1-1.9-2.3l3.7-13C214.8,125.3,216.2,124.3,217.6,124.3z"/>
	</g>
	<g id="g6111-62-2-1" transform="translate(129.99998,422.49998)">
		<path id="rect6095-14-0-3" style="fill:#FFFFFF;stroke:#000000;stroke-width:0.5099;" d="M215.8,121.8h10c1.4,0,2.2,1,1.9,2.3
			l-5.1,18c-0.4,1.2-1.8,2.3-3.1,2.3h-10c-1.4,0-2.2-1-1.9-2.3l5.1-18C213,122.8,214.4,121.8,215.8,121.8z"/>
		<path id="rect6097-6-3-2" style="fill:#5555FF;" d="M217.6,124.3h5c1.4,0,2.2,1,1.9,2.3l-3.7,13c-0.4,1.2-1.8,2.3-3.1,2.3h-5
			c-1.4,0-2.2-1-1.9-2.3l3.7-13C214.8,125.3,216.2,124.3,217.6,124.3z"/>
	</g>
	<g id="g6111-3-5" transform="translate(127.49999,437.49998)">
		<path id="rect6095-0-3" style="fill:#FFFFFF;stroke:#000000;stroke-width:0.5099;" d="M215.8,121.8h10c1.4,0,2.2,1,1.9,2.3
			l-5.1,18c-0.4,1.2-1.8,2.3-3.1,2.3h-10c-1.4,0-2.2-1-1.9-2.3l5.1-18C213,122.8,214.4,121.8,215.8,121.8z"/>
		<path id="rect6097-7-4" style="fill:#FFAA00;" d="M217.6,124.3h5c1.4,0,2.2,1,1.9,2.3l-3.7,13c-0.4,1.2-1.8,2.3-3.1,2.3h-5
			c-1.4,0-2.2-1-1.9-2.3l3.7-13C214.8,125.3,216.2,124.3,217.6,124.3z"/>
	</g>
	<g id="g6111-62-7-3" transform="translate(137.49998,429.99999)">
		<path id="rect6095-14-8-2" style="fill:#FFFFFF;stroke:#000000;stroke-width:0.5099;" d="M215.8,121.8h10c1.4,0,2.2,1,1.9,2.3
			l-5.1,18c-0.4,1.2-1.8,2.3-3.1,2.3h-10c-1.4,0-2.2-1-1.9-2.3l5.1-18C213,122.8,214.4,121.8,215.8,121.8z"/>
		<path id="rect6097-6-7-1" style="fill:#55AA55;" d="M217.6,124.3h5c1.4,0,2.2,1,1.9,2.3l-3.7,13c-0.4,1.2-1.8,2.3-3.1,2.3h-5
			c-1.4,0-2.2-1-1.9-2.3l3.7-13C214.8,125.3,216.2,124.3,217.6,124.3z"/>
	</g>
</g>
</svg>
